HIERARCHY
ROOT RootJoint
{
    OFFSET   0.000000   0.000000   0.000000
    CHANNELS 6 Xposition Yposition Zposition Xrotation Yrotation Zrotation
    JOINT pelvis_lowerback
    {
        OFFSET   0.000000   0.093605   0.000000
        CHANNELS 3 Xrotation Yrotation Zrotation
        JOINT lowerback_torso
        {
            OFFSET   0.000000   0.100000   0.000000
            CHANNELS 3 Xrotation Yrotation Zrotation
            JOINT torso_head
            {
                OFFSET   0.000000   0.282350   0.000000
                CHANNELS 3 Xrotation Yrotation Zrotation
                End Site
                {
                    OFFSET   0.000000   0.192650   0.000000
                }
            }
            JOINT rTorso_Clavicle
            {
                OFFSET  -0.001000   0.157500   0.000000
                CHANNELS 3 Xrotation Yrotation Zrotation
                JOINT rShoulder
                {
                    OFFSET  -0.117647   0.000000   0.000000
                    CHANNELS 3 Xrotation Yrotation Zrotation
                    JOINT rElbow
                    {
                        OFFSET  -0.245000   0.000000   0.000000
                        CHANNELS 3 Xrotation Yrotation Zrotation
                        JOINT rWrist
                        {
                            OFFSET  -0.240000   0.000000   0.000000
                            CHANNELS 3 Xrotation Yrotation Zrotation
                            End Site
                            {
                                OFFSET  -0.116353  -0.002500   0.000000
                            }
                        }
                    }
                }
            }
            JOINT lTorso_Clavicle
            {
                OFFSET   0.001000   0.157500   0.000000
                CHANNELS 3 Xrotation Yrotation Zrotation
                JOINT lShoulder
                {
                    OFFSET   0.117647   0.000000   0.000000
                    CHANNELS 3 Xrotation Yrotation Zrotation
                    JOINT lElbow
                    {
                        OFFSET   0.245000   0.000000   0.000000
                        CHANNELS 3 Xrotation Yrotation Zrotation
                        JOINT lWrist
                        {
                            OFFSET   0.240000   0.000000   0.000000
                            CHANNELS 3 Xrotation Yrotation Zrotation
                            End Site
                            {
                                OFFSET   0.116353  -0.002500   0.000000
                            }
                        }
                    }
                }
            }
        }
    }
    JOINT rHip
    {
        OFFSET  -0.100000  -0.051395   0.000000
        CHANNELS 3 Xrotation Yrotation Zrotation
        JOINT rKnee
        {
            OFFSET   0.000000  -0.410000   0.000000
            CHANNELS 3 Xrotation Yrotation Zrotation
            JOINT rAnkle
            {
                OFFSET   0.000000  -0.390000   0.000000
                CHANNELS 3 Xrotation Yrotation Zrotation
                JOINT rToeJoint
                {
                    OFFSET   0.000000  -0.050000   0.130000
                    CHANNELS 3 Xrotation Yrotation Zrotation
                    End Site
                    {
                        OFFSET  -0.010000   0.002000   0.060000
                    }
                }
            }
        }
    }
    JOINT lHip
    {
        OFFSET   0.100000  -0.051395   0.000000
        CHANNELS 3 Xrotation Yrotation Zrotation
        JOINT lKnee
        {
            OFFSET   0.000000  -0.410000   0.000000
            CHANNELS 3 Xrotation Yrotation Zrotation
            JOINT lAnkle
            {
                OFFSET   0.000000  -0.390000   0.000000
                CHANNELS 3 Xrotation Yrotation Zrotation
                JOINT lToeJoint
                {
                    OFFSET   0.000000  -0.050000   0.130000
                    CHANNELS 3 Xrotation Yrotation Zrotation
                    End Site
                    {
                        OFFSET   0.010000   0.002000   0.060000
                    }
                }
            }
        }
    }
}
MOTION
Frames: 10
Frame Time:   0.008333
 -2.376719   0.925631   3.975860   0.000000   0.000000   0.000000   0.000000   0.000000   0.000000   0.000000   0.000000   0.000000   0.000000   0.000000   0.000000   0.000000   0.000000   0.000000   0.000000   0.000000   0.000000   0.000000   0.000000   0.000000   0.000000   0.000000   0.000000   0.000000   0.000000   0.000000   0.000000   0.000000   0.000000   0.000000   0.000000   0.000000   0.000000   0.000000   0.000000   0.000000   0.000000   0.000000   0.000000   0.000000   0.000000   0.000000   0.000000   0.000000   0.000000   0.000000   0.000000   0.000000   0.000000   0.000000   0.000000   0.000000   0.000000   0.000000   0.000000   0.000000   0.000000   0.000000   0.000000
 -2.376889   0.925283   3.975559  -0.064182   0.183503   0.084531   0.030232  -0.009336  -0.186516   0.260588  -0.122602  -0.024681  -0.171369  -0.015942  -0.053683   0.623121  -0.499757  -0.669882   1.683080  -0.290960   2.474807   0.050196   3.290943  -0.073735  -0.131369  -1.143540  -1.325814   0.268983   0.522751   0.735176   1.159657   0.175742  -1.842953   0.040681  -3.613787   0.053217  -0.107795   1.232194   0.999945  -0.160568  -0.401926  -0.236850   0.590815   0.000775  -0.001133  -0.637039  -0.524994   0.028996   0.055011   0.000059  -0.000357  -0.188583  -0.410106   0.082132   0.656676  -0.000969  -0.001293  -0.716981   0.092769   0.173426   0.188669  -0.000559  -0.000220
 -2.377149   0.924811   3.975014  -0.189627   0.407489   0.163792   0.107076  -0.012181  -0.396907   0.587836  -0.245840  -0.057669  -0.304163  -0.031346  -0.129449   1.225076  -0.896272  -0.924543   3.359696  -0.387948   5.284472   0.116096   6.476690  -0.131411  -0.175913  -1.358143  -2.172019   0.530747   0.930104   1.155747   2.248297   0.183608  -3.800725   0.096742  -7.353315   0.097383  -0.155583   1.482131   1.622729  -0.321657  -0.799536  -0.606171   1.214069   0.002152  -0.001895  -1.230668  -1.025833   0.047065   0.086130   0.000119  -0.000469  -0.335854  -0.806318   0.303756   1.341901  -0.002626  -0.002016  -1.387953   0.178061   0.337140   0.330543  -0.001026  -0.000280
 -2.377436   0.924028   3.974313  -0.326707   0.676310   0.227156   0.209908  -0.017605  -0.600967   0.923587  -0.364589  -0.085335  -0.424723  -0.045599  -0.211093   1.785308  -1.175935  -0.904536   5.011982  -0.324795   8.291874   0.182734   9.480450  -0.173301  -0.205050  -1.258286  -2.596430   0.774566   1.216629   1.339516   3.256980   0.080675  -5.782629   0.157151 -11.127123   0.131764  -0.192896   1.394779   1.905168  -0.499135  -1.172925  -1.077974   1.797162   0.003736  -0.002146  -1.784018  -1.495379   0.057426   0.114023   0.000188  -0.000516  -0.466854  -1.176186   0.643758   1.990357  -0.004449  -0.002077  -2.014192   0.257528   0.491598   0.458460  -0.001449  -0.000239
 -2.378045   0.923809   3.973631  -0.471741   0.863389   0.212885   0.327460   0.024251  -0.780018   1.255795  -0.438258  -0.081502  -0.537105  -0.057329  -0.289098   2.303948  -1.348225  -0.630076   6.636253  -0.103947  11.466163   0.245394  12.306499  -0.202774  -0.226742  -1.008809  -2.715391   1.004071   1.429629   1.305248   4.191618  -0.092209  -7.764537   0.219119 -14.916994   0.158194  -0.226942   1.178562   1.950008  -0.705377  -1.648941  -1.085510   2.474751   0.002977  -0.003503  -2.104021  -2.054216   0.279847   0.140462   0.000102  -0.000610  -0.544070  -1.514630   1.161648   2.593115  -0.006284  -0.002284  -2.596622   0.333107   0.638183   0.594172  -0.001935  -0.000265
 -2.378383   0.923733   3.973000  -0.601216   1.120704   0.273361   0.443494   0.038794  -0.975041   1.571004  -0.521939  -0.094659  -0.643773  -0.068952  -0.374786   2.786847  -1.464390  -0.189842   8.156249   0.228673  14.607267   0.296764  14.957406  -0.220856  -0.247638  -0.681398  -2.504949   1.223683   1.579624   1.126989   5.059351  -0.324600  -9.721562   0.276458 -18.719811   0.178481  -0.263411   0.890552   1.745646  -0.887660  -2.033983  -1.170311   3.101150   0.002381  -0.003569  -2.451722  -2.504252   0.362319   0.171582   0.000061  -0.000647  -0.625367  -1.837809   1.629352   3.159767  -0.007704  -0.001937  -3.140486   0.402043   0.775978   0.716968  -0.002268  -0.000190
 -2.378448   0.923706   3.972437  -0.713760   1.427932   0.368630   0.558907   0.040108  -1.148011   1.868961  -0.613199  -0.099892  -0.745065  -0.079488  -0.460307   3.236000  -1.546801   0.360319   9.553872   0.640133  17.629851   0.334972  17.438964  -0.229950  -0.272662  -0.323812  -2.066760   1.435027   1.686292   0.846394   5.865147  -0.598658 -11.626933   0.326552 -22.531183   0.194172  -0.303806   0.565187   1.360189  -1.060666  -2.384353  -1.305444   3.689401   0.001989  -0.003143  -2.777343  -2.917443   0.426815   0.195889   0.000040  -0.000616  -0.705339  -2.139136   2.086652   3.684845  -0.008738  -0.001277  -3.648947   0.465395   0.905040   0.825455  -0.002465  -0.000066
 -2.378227   0.923477   3.972429  -0.804957   1.728024   0.391837   0.595876  -0.005576  -1.193358   2.140177  -0.641762  -0.058929  -0.861437  -0.175535  -0.647447   3.682049  -1.824154   0.338049  11.266240   1.146336  20.392227   0.365876  20.225862  -0.249117  -0.299354   0.242894  -0.765356   1.777791   1.945188   1.018850   6.814847  -0.969169 -13.492651   0.356378 -26.400620   0.215119  -0.370877  -0.073413   0.278195  -1.200037  -2.760023  -1.383491   4.218022   0.001728  -0.002917  -2.951232  -3.428849   0.414553   0.165483   0.000017  -0.000335  -0.620583  -2.491461   2.597912   3.920303  -0.008101  -0.001023  -3.951664   0.553661   0.987755   0.856575  -0.002140  -0.000038
 -2.377763   0.923219   3.972753  -0.874682   2.039488   0.409907   0.589813  -0.059575  -1.209837   2.366757  -0.672118  -0.005760  -0.971142  -0.267940  -0.818073   4.100212  -2.154110   0.113779  12.854544   1.634118  22.824614   0.374991  22.827769  -0.255132  -0.318729   0.897704   0.441643   2.100378   2.249600   1.353145   7.699775  -1.292614 -15.116672   0.368470 -30.261530   0.227450  -0.435686  -0.704737  -0.746963  -1.332017  -3.117592  -1.471009   4.731570   0.001584  -0.002594  -3.111573  -3.908563   0.402362   0.147326   0.000002  -0.000183  -0.494063  -2.823091   3.088030   4.125748  -0.007392  -0.000770  -4.233864   0.634920   1.065163   0.895446  -0.001910  -0.000006
 -2.377077   0.922968   3.973323  -0.929436   2.364028   0.438611   0.553951  -0.117859  -1.219798   2.556722  -0.707716   0.049165  -1.074900  -0.353998  -0.973301   4.490484  -2.518453  -0.227460  14.327927   2.095023  24.993936   0.369710  25.241587  -0.251796  -0.347312   1.468340   1.447711   2.395991   2.578713   1.789096   8.519431  -1.575466 -16.540941   0.369305 -34.110388   0.233458  -0.502136  -1.253637  -1.590911  -1.451265  -3.451475  -1.581832   5.223007   0.001526  -0.002174  -3.269703  -4.355117   0.387381   0.132634  -0.000010  -0.000087  -0.344004  -3.130635   3.541997   4.326036  -0.006747  -0.000512  -4.497004   0.710160   1.137608   0.932915  -0.001707   0.000027
